<svg version="1.2" xmlns="http://www.w3.org/2000/svg" viewBox="0 0 854 951" width="854" height="951">
	<title>Nouveau projet</title>
	<style>
		.s0 { fill: #000000 } 
		.s1 { fill: #808080 } 
		.s2 { fill: #bababa } 
		.s3 { fill: #999999 } 
	</style>
	<path id="Forme 2" class="s0" d=""/>
	<path id="Forme 3" class="s1" d="m95 48h664c50.3 0 91 40.7 91 91v712c0 50.3-40.7 91-91 91h-664c-50.3 0-91-40.7-91-91v-712c0-50.3 40.7-91 91-91z"/>
	<path id="Forme 3 copy" class="s2" d="m95 7h664c50.3 0 91 40.7 91 91v712c0 50.3-40.7 91-91 91h-664c-50.3 0-91-40.7-91-91v-712c0-50.3 40.7-91 91-91zm0 0h664c50.3 0 91 40.7 91 91v712c0 50.3-40.7 91-91 91h-664c-50.3 0-91-40.7-91-91v-712c0-50.3 40.7-91 91-91zm0 0h664c50.3 0 91 40.7 91 91v712c0 50.3-40.7 91-91 91h-664c-50.3 0-91-40.7-91-91v-712c0-50.3 40.7-91 91-91zm0 0h664c50.3 0 91 40.7 91 91v712c0 50.3-40.7 91-91 91h-664c-50.3 0-91-40.7-91-91v-712c0-50.3 40.7-91 91-91zm0 0h664c50.3 0 91 40.7 91 91v712c0 50.3-40.7 91-91 91h-664c-50.3 0-91-40.7-91-91v-712c0-50.3 40.7-91 91-91zm0 0h664c50.3 0 91 40.7 91 91v712c0 50.3-40.7 91-91 91h-664c-50.3 0-91-40.7-91-91v-712c0-50.3 40.7-91 91-91z"/>
	<path id="Forme 3 copy 2" class="s3" d="m133 49h589.3c50.2 0 91 40.7 91 91v633c0 50.3-40.8 91-91 91h-589.3c-50.2 0-91-40.7-91-91v-633c0-50.3 40.8-91 91-91zm0 0h589.3c50.2 0 91 40.7 91 91v633c0 50.3-40.8 91-91 91h-589.3c-50.2 0-91-40.7-91-91v-633c0-50.3 40.8-91 91-91zm0 0h589.3c50.2 0 91 40.7 91 91v633c0 50.3-40.8 91-91 91h-589.3c-50.2 0-91-40.7-91-91v-633c0-50.3 40.8-91 91-91zm0 0h589.3c50.2 0 91 40.7 91 91v633c0 50.3-40.8 91-91 91h-589.3c-50.2 0-91-40.7-91-91v-633c0-50.3 40.8-91 91-91zm0 0h589.3c50.2 0 91 40.7 91 91v633c0 50.3-40.8 91-91 91h-589.3c-50.2 0-91-40.7-91-91v-633c0-50.3 40.8-91 91-91zm0 0h589.3c50.2 0 91 40.7 91 91v633c0 50.3-40.8 91-91 91h-589.3c-50.2 0-91-40.7-91-91v-633c0-50.3 40.8-91 91-91z"/>
</svg>